<svg width="48" height="48" viewBox="0 0 48 48" fill="none" xmlns="http://www.w3.org/2000/svg">
<path d="M20 7.50342C23.5249 7.58101 26.6503 9.2946 28.6602 11.9224C28.8894 12.222 29.2548 12.3839 29.6289 12.3633L29.7036 12.3569C30.0467 12.3157 30.3959 12.2944 30.75 12.2944C35.5824 12.2944 39.4999 16.2484 39.5 21.126C39.5 21.2068 39.5494 21.2794 39.625 21.3081C42.1811 22.2781 44 24.768 44 27.687C43.9999 31.3643 41.1132 34.3605 37.5024 34.4946L37.4971 34.5H15.0015L14.9985 34.4971C14.9159 34.4986 14.8331 34.5 14.75 34.5C8.81294 34.5 4 30.6944 4 26C4 24.3113 4.62331 22.7379 5.69727 21.415C6.13873 23.5186 6.94255 25.5292 8.31982 27.3843C8.42596 27.5272 8.53563 27.6673 8.64697 27.8062C9.58615 29.175 11.5709 30.5 14.75 30.5C14.7924 30.5 14.8416 30.4991 14.9263 30.4976C14.9991 30.4962 15.0716 30.4975 15.1436 30.5H37.3086C37.3237 30.4993 37.3388 30.4976 37.354 30.4971C38.7456 30.4454 39.9244 29.3117 39.9966 27.8311L40 27.687C40 26.4657 39.2425 25.4413 38.2061 25.0479C36.5612 24.4236 35.5 22.8515 35.5 21.126C35.4999 18.4224 33.3383 16.2944 30.75 16.2944C30.5559 16.2944 30.3661 16.3059 30.1812 16.3281C28.4168 16.5403 26.6116 15.8281 25.4829 14.3525C24.1704 12.6365 22.1502 11.5439 19.8853 11.502C18.6649 11.521 17.2734 11.8435 16.0732 12.5161C15.3055 12.9751 14.6271 13.5736 14.0732 14.2788C13.4218 15.2008 13 16.4092 13 18C13 19.0864 13.3631 20.6164 14.3066 21.6968C14.3672 21.7661 14.4318 21.8347 14.5 21.9028V26.5581C13.2015 26.063 12.135 25.2917 11.2935 24.3281C9.53702 22.3169 9 19.7469 9 18C9 14.2513 10.624 11.5452 12.8857 9.83105C13.2497 9.55519 13.6279 9.30678 14.0156 9.08398C15.6949 8.07787 17.6556 7.5 19.75 7.5C19.7826 7.5 19.8151 7.5007 19.8477 7.50098C19.8987 7.50028 19.9495 7.5 20 7.5V7.50342Z" fill="white"/>
</svg>
